<svg width="32" height="32" viewBox="0 0 32 32" fill="none" xmlns="http://www.w3.org/2000/svg">
  <style>
    .dark { fill: #E9DFCE; }
    .light { fill: #1A1A1A; }
    @media (prefers-color-scheme: dark) {
      .dark { fill: #1A1A1A; }
      .light { fill: #E9DFCE; }
    }
  </style>
  <rect width="32" height="32" rx="16" class="light"/>
  <path d="M9.5 8h4.2c1.6 0 2.8 0.4 3.6 1.2c0.8 0.8 1.2 2 1.2 3.6c0 1.6-0.4 2.8-1.2 3.6c-0.8 0.8-2 1.2-3.6 1.2H11v4.4H9.5V8zM13.7 16.2c1.1 0 1.9-0.3 2.4-0.8c0.5-0.5 0.8-1.3 0.8-2.4c0-1.1-0.3-1.9-0.8-2.4c-0.5-0.5-1.3-0.8-2.4-0.8H11v6.4H13.7z" class="dark"/>
  <path d="M19.5 8h3l4.5 14h-1.7l-1.2-4h-6.2l-1.2 4h-1.7L19.5 8zM23.7 16.6l-2.7-8.8l-2.7 8.8H23.7z" class="dark"/>
</svg> 